<?xml version="1.0" encoding="utf-8"?>
<!-- Generator: Adobe Illustrator 16.0.0, SVG Export Plug-In . SVG Version: 6.00 Build 0)  -->
<!DOCTYPE svg PUBLIC "-//W3C//DTD SVG 1.1//EN" "http://www.w3.org/Graphics/SVG/1.1/DTD/svg11.dtd">
<svg version="1.1" id="Layer_1" xmlns="http://www.w3.org/2000/svg" xmlns:xlink="http://www.w3.org/1999/xlink" x="0px" y="0px"
	 width="298px" height="90px" viewBox="0 0 298 90" enable-background="new 0 0 298 90" xml:space="preserve">
<linearGradient id="SVGID_1_" gradientUnits="userSpaceOnUse" x1="149.0005" y1="90" x2="149.0005" y2="4.882813e-004">
	<stop  offset="0" style="stop-color:#FED84A"/>
	<stop  offset="0.0967" style="stop-color:#FDD04B"/>
	<stop  offset="0.2688" style="stop-color:#FABA4C"/>
	<stop  offset="0.496" style="stop-color:#F5974C"/>
	<stop  offset="0.7664" style="stop-color:#F16648"/>
	<stop  offset="1" style="stop-color:#ED1943"/>
</linearGradient>
<path fill-rule="evenodd" clip-rule="evenodd" fill="url(#SVGID_1_)" d="M298,45c0,24.853-20.147,45-45,45H45
	C20.147,90,0,69.853,0,45l0,0C0,20.147,20.147,0,45,0h208C277.853,0,298,20.147,298,45L298,45z"/>
<g>
	<linearGradient id="SVGID_2_" gradientUnits="userSpaceOnUse" x1="44.9985" y1="94.167" x2="45.0011" y2="-5.58">
		<stop  offset="0" style="stop-color:#FED84A"/>
		<stop  offset="0.0967" style="stop-color:#FDD04B"/>
		<stop  offset="0.2688" style="stop-color:#FABA4C"/>
		<stop  offset="0.496" style="stop-color:#F5974C"/>
		<stop  offset="0.7664" style="stop-color:#F16648"/>
		<stop  offset="1" style="stop-color:#ED1943"/>
	</linearGradient>
	<path fill-rule="evenodd" clip-rule="evenodd" fill="url(#SVGID_2_)" d="M45,90c24.785,0,45-20.215,45-45C90,20.215,69.785,0,45,0
		C20.215,0,0,20.215,0,45C0,69.785,20.215,90,45,90z"/>
	<path fill-rule="evenodd" clip-rule="evenodd" fill="#000002" d="M25.353,60.582c-2.336,0-4.23-1.894-4.23-4.23
		c0-0.94,0.308-1.812,0.828-2.514c-3.817-0.942-6.232-2.19-8.477-3.352c-0.58-0.3-1.152-0.595-1.86-0.933
		c-0.902-0.43-1.285-1.51-0.856-2.411c0.429-0.902,1.51-1.285,2.412-0.856c0.576,0.276,1.26,0.628,1.959,0.99
		c4.017,2.077,8.627,4.462,22.648,4.462c0.999,0,1.81,0.81,1.81,1.81c0,0.999-0.811,1.811-1.81,1.811
		c-3.237,0-6.007-0.123-8.406-0.339c0.139,0.419,0.214,0.866,0.214,1.332C29.583,58.688,27.689,60.582,25.353,60.582L25.353,60.582z
		 M52.093,74.579c3.311,0,6.64-0.878,6.64-2.753c0-2.84-11.087-2.753-13.732-2.753c-2.646,0-13.733-0.087-13.733,2.753
		c0,1.875,3.329,2.753,6.64,2.753H52.093L52.093,74.579z M76.832,46.286c0.902-0.428,1.982-0.046,2.412,0.856
		c0.429,0.901,0.046,1.981-0.856,2.411c-0.709,0.338-1.281,0.633-1.86,0.933c-2.245,1.161-4.66,2.409-8.477,3.352
		c0.52,0.702,0.828,1.573,0.828,2.514c0,2.337-1.894,4.23-4.23,4.23c-2.336,0-4.23-1.894-4.23-4.23c0-0.466,0.075-0.913,0.214-1.332
		c-2.399,0.216-5.169,0.339-8.406,0.339c-0.999,0-1.81-0.812-1.81-1.811c0-1,0.811-1.81,1.81-1.81
		c14.02,0,18.631-2.385,22.648-4.462C75.572,46.914,76.254,46.563,76.832,46.286z"/>
</g>
</svg>
