<?xml version="1.0" encoding="utf-8"?>
<!-- Generator: Adobe Illustrator 16.0.0, SVG Export Plug-In . SVG Version: 6.00 Build 0)  -->
<!DOCTYPE svg PUBLIC "-//W3C//DTD SVG 1.1//EN" "http://www.w3.org/Graphics/SVG/1.1/DTD/svg11.dtd">
<svg version="1.1" id="Layer_1" xmlns="http://www.w3.org/2000/svg" xmlns:xlink="http://www.w3.org/1999/xlink" x="0px" y="0px"
	 width="298px" height="90px" viewBox="0 0 298 90" enable-background="new 0 0 298 90" xml:space="preserve">
<path fill-rule="evenodd" clip-rule="evenodd" fill="#FFFFFF" d="M298,45c0,24.853-20.147,45-45,45H45C20.147,90,0,69.853,0,45l0,0
	C0,20.147,20.147,0,45,0h208C277.853,0,298,20.147,298,45L298,45z"/>
<g>
	<path fill="#4788C7" d="M59.199,37.145v16.91c0,2.179-1.766,3.945-3.941,3.945H38.403l-8,8.801V58h-5.661
		c-2.175,0-3.941-1.767-3.941-3.941V37.145c0-2.18,1.766-3.946,3.941-3.946h30.516C57.434,33.199,59.199,34.965,59.199,37.145
		L59.199,37.145z M59.199,37.145"/>
	<path fill="#3370B8" d="M63.258,22H32.742c-2.175,0-3.941,1.766-3.941,3.945v7.254h26.457c2.176,0,3.941,1.766,3.941,3.946v9.656
		h4.059c2.176,0,3.941-1.766,3.941-3.946v-16.91C67.199,23.766,65.434,22,63.258,22L63.258,22z M63.258,22"/>
	<path fill="#FFFFFF" d="M40.801,42.012H29.602c-0.442,0-0.801-0.36-0.801-0.801c0-0.441,0.359-0.801,0.801-0.801h11.199
		c0.441,0,0.801,0.36,0.801,0.801C41.602,41.652,41.242,42.012,40.801,42.012L40.801,42.012z M40.801,42.012"/>
	<path fill="#FFFFFF" d="M51.199,46.813H29.602c-0.442,0-0.801-0.359-0.801-0.801c0-0.442,0.359-0.801,0.801-0.801h21.598
		c0.445,0,0.801,0.358,0.801,0.801C52,46.453,51.645,46.813,51.199,46.813L51.199,46.813z M51.199,46.813"/>
	<path fill="#FFFFFF" d="M51.199,51.612H29.602c-0.442,0-0.801-0.358-0.801-0.8s0.359-0.801,0.801-0.801h21.598
		c0.445,0,0.801,0.359,0.801,0.801S51.645,51.612,51.199,51.612L51.199,51.612z M51.199,51.612"/>
</g>
</svg>
