<?xml version="1.0" encoding="utf-8"?>
<!-- Generator: Adobe Illustrator 16.0.0, SVG Export Plug-In . SVG Version: 6.00 Build 0)  -->
<!DOCTYPE svg PUBLIC "-//W3C//DTD SVG 1.1//EN" "http://www.w3.org/Graphics/SVG/1.1/DTD/svg11.dtd">
<svg version="1.1" id="Layer_1" xmlns="http://www.w3.org/2000/svg" xmlns:xlink="http://www.w3.org/1999/xlink" x="0px" y="0px"
	 width="298px" height="90px" viewBox="0 0 298 90" enable-background="new 0 0 298 90" xml:space="preserve">
<path fill-rule="evenodd" clip-rule="evenodd" fill="#FED84A" d="M298,45c0,24.853-20.147,45-45,45H45C20.147,90,0,69.853,0,45l0,0
	C0,20.147,20.147,0,45,0h208C277.853,0,298,20.147,298,45L298,45z"/>
<g>
	<path fill-rule="evenodd" clip-rule="evenodd" fill="#FED84A" d="M45,90c24.785,0,45-20.215,45-45C90,20.214,69.785,0,45,0
		C20.215,0,0,20.214,0,45C0,69.785,20.215,90,45,90z"/>
	<path fill-rule="evenodd" clip-rule="evenodd" fill="#000002" d="M45,74.829c15.748,0,28.621-12.297,29.545-27.813H15.455
		C16.378,62.532,29.251,74.829,45,74.829L45,74.829z M17.041,26.427c-0.977-0.457-1.398-1.62-0.942-2.597
		c0.457-0.977,1.619-1.398,2.596-0.942l12.326,5.798c0.978,0.457,1.399,1.62,0.942,2.596c-0.202,0.432-0.541,0.755-0.942,0.942
		l-12.326,5.798c-0.977,0.457-2.14,0.035-2.596-0.942c-0.457-0.977-0.035-2.14,0.942-2.596l8.565-4.029L17.041,26.427L17.041,26.427
		z M71.305,22.888c0.977-0.457,2.14-0.035,2.596,0.942c0.457,0.977,0.035,2.14-0.942,2.597l-8.565,4.029l8.565,4.029
		c0.977,0.457,1.398,1.62,0.942,2.596c-0.457,0.977-1.619,1.399-2.596,0.942l-12.327-5.798c-0.4-0.187-0.74-0.51-0.941-0.942
		c-0.457-0.977-0.035-2.14,0.941-2.596L71.305,22.888z"/>
	<path fill-rule="evenodd" clip-rule="evenodd" fill="#ED1943" d="M45,74.829c11.39,0,21.274-6.435,26.223-15.866
		C64.002,55.777,54.896,53.876,45,53.876c-9.897,0-19.003,1.901-26.224,5.087C23.725,68.395,33.61,74.829,45,74.829z"/>
</g>
</svg>
