<?xml version="1.0" encoding="utf-8"?>
<!-- Generator: Adobe Illustrator 16.0.0, SVG Export Plug-In . SVG Version: 6.00 Build 0)  -->
<!DOCTYPE svg PUBLIC "-//W3C//DTD SVG 1.1//EN" "http://www.w3.org/Graphics/SVG/1.1/DTD/svg11.dtd">
<svg version="1.1" id="Layer_1" xmlns="http://www.w3.org/2000/svg" xmlns:xlink="http://www.w3.org/1999/xlink" x="0px" y="0px"
	 width="298px" height="90px" viewBox="0 0 298 90" enable-background="new 0 0 298 90" xml:space="preserve">
<path fill-rule="evenodd" clip-rule="evenodd" fill="#4876BA" d="M298,45c0,24.853-20.147,45-45,45H45C20.147,90,0,69.853,0,45l0,0
	C0,20.147,20.147,0,45,0h208C277.853,0,298,20.147,298,45L298,45z"/>
<g>
	<path fill-rule="evenodd" clip-rule="evenodd" fill="#4876BA" d="M45,90c24.785,0,45-20.215,45-45C90,20.214,69.785,0,45,0
		S0,20.214,0,45C0,69.785,20.215,90,45,90z"/>
	<path fill-rule="evenodd" clip-rule="evenodd" fill="#FFFFFF" d="M46.495,22.547v-2.94c-0.026-1.929,1.667-3.639,3.592-3.639
		c1.83,0,3.056,1.154,3.48,2.697c0.917,3.329,1.842,6.679-2.417,15.549h10.444c0.449,0,0.438,0,2.314,0
		c2.175,0,3.94,1.764,3.94,3.94c0,1.977-1.456,3.614-3.354,3.896c1.873,0.123,3.354,1.681,3.354,3.585
		c0,1.984-1.609,3.593-3.593,3.593l-0.024-0.002c1.264,0.526,2.152,1.772,2.152,3.227c0,1.606-1.085,2.96-2.563,3.367
		c0.704,0.62,1.15,1.525,1.15,2.537c0,1.863-1.512,3.376-3.376,3.376H38.482c-1.19,0-2.165-0.974-2.165-2.165V43.517
		C36.317,30.86,46.495,26.569,46.495,22.547L46.495,22.547z M22.416,65.256h8.297c1.286,0,2.337-1.052,2.337-2.338V41.75
		c0-1.286-1.051-2.337-2.337-2.337h-8.297c-1.286,0-2.337,1.051-2.337,2.337v21.168C20.079,64.204,21.13,65.256,22.416,65.256z"/>
</g>
</svg>
