<?xml version="1.0" encoding="utf-8"?>
<!-- Generator: Adobe Illustrator 16.0.0, SVG Export Plug-In . SVG Version: 6.00 Build 0)  -->
<!DOCTYPE svg PUBLIC "-//W3C//DTD SVG 1.1//EN" "http://www.w3.org/Graphics/SVG/1.1/DTD/svg11.dtd">
<svg version="1.1" id="Layer_1" xmlns="http://www.w3.org/2000/svg" xmlns:xlink="http://www.w3.org/1999/xlink" x="0px" y="0px"
	 width="298px" height="90px" viewBox="0 0 298 90" enable-background="new 0 0 298 90" xml:space="preserve">
<path fill-rule="evenodd" clip-rule="evenodd" fill="#ED1943" d="M298,45c0,24.853-20.147,45-45,45H45C20.147,90,0,69.853,0,45l0,0
	C0,20.147,20.147,0,45,0h208C277.853,0,298,20.147,298,45L298,45z"/>
<g>
	<path fill-rule="evenodd" clip-rule="evenodd" fill="#ED1943" d="M45,90c24.785,0,45-20.215,45-45S69.785,0,45,0S0,20.215,0,45
		S20.215,90,45,90z"/>
	<path fill-rule="evenodd" clip-rule="evenodd" fill="#FFFFFF" d="M44.999,31.983c2.258-4.649,5.271-8.021,12.541-8.021
		s13.5,6.238,13.5,13.933c0,12-15.795,26.954-26.041,30.817c-10.244-3.863-26.04-18.816-26.04-30.817
		c0-7.695,6.229-13.933,13.5-13.933C39.729,23.962,42.742,27.333,44.999,31.983z"/>
</g>
</svg>
