<?xml version="1.0" encoding="utf-8"?>
<!-- Generator: Adobe Illustrator 16.0.0, SVG Export Plug-In . SVG Version: 6.00 Build 0)  -->
<!DOCTYPE svg PUBLIC "-//W3C//DTD SVG 1.1//EN" "http://www.w3.org/Graphics/SVG/1.1/DTD/svg11.dtd">
<svg version="1.1" id="Layer_1" xmlns="http://www.w3.org/2000/svg" xmlns:xlink="http://www.w3.org/1999/xlink" x="0px" y="0px"
	 width="298px" height="90px" viewBox="0 0 298 90" enable-background="new 0 0 298 90" xml:space="preserve">
<path fill-rule="evenodd" clip-rule="evenodd" fill="#FED84A" d="M298,45c0,24.853-20.147,45-45,45H45C20.147,90,0,69.853,0,45l0,0
	C0,20.147,20.147,0,45,0h208C277.853,0,298,20.147,298,45L298,45z"/>
<g>
	<path fill-rule="evenodd" clip-rule="evenodd" fill="#FED84A" d="M45,90c24.785,0,45-20.215,45-45C90,20.215,69.785,0,45,0
		S0,20.215,0,45C0,69.785,20.215,90,45,90z"/>
	<path fill-rule="evenodd" clip-rule="evenodd" fill="#000002" d="M62.729,36.173c-0.96,0.265-1.955-0.298-2.22-1.259
		c-0.266-0.961,0.297-1.956,1.258-2.221c2.611-0.724,5.311-0.405,7.554,0.685c2.299,1.117,4.139,3.045,4.958,5.496
		c0.315,0.945-0.194,1.968-1.139,2.284c-0.945,0.316-1.967-0.194-2.284-1.139c-0.499-1.493-1.653-2.682-3.106-3.389
		C66.258,35.905,64.462,35.692,62.729,36.173z"/>
	<path fill-rule="evenodd" clip-rule="evenodd" fill="#000002" d="M64.689,54.157c3.007,0,5.459-2.716,5.459-6.046
		c0-3.331-2.452-6.048-5.459-6.048s-5.459,2.717-5.459,6.048C59.23,51.441,61.683,54.157,64.689,54.157z"/>
	<path fill-rule="evenodd" clip-rule="evenodd" fill="#000002" d="M28.232,32.674c0.96,0.265,1.524,1.26,1.258,2.22
		s-1.26,1.524-2.221,1.258c-1.732-0.48-3.528-0.267-5.022,0.458c-1.453,0.706-2.606,1.896-3.105,3.389
		c-0.315,0.945-1.338,1.455-2.284,1.138c-0.944-0.316-1.455-1.338-1.138-2.284c0.82-2.452,2.66-4.378,4.958-5.496
		C22.921,32.269,25.621,31.949,28.232,32.674z"/>
	<path fill-rule="evenodd" clip-rule="evenodd" fill="#000002" d="M25.31,54.138c3.007,0,5.459-2.717,5.459-6.047
		s-2.452-6.047-5.459-6.047c-3.006,0-5.458,2.717-5.458,6.047S22.303,54.138,25.31,54.138z"/>
	<path fill-rule="evenodd" clip-rule="evenodd" fill="#000002" d="M36.167,71.028c-0.636,0.765-1.773,0.869-2.539,0.232
		c-0.765-0.636-0.87-1.772-0.233-2.537c0.605-0.727,1.266-1.362,1.969-1.908c2.713-2.112,6.246-3.148,9.745-3.104
		c3.5,0.043,7,1.168,9.648,3.378c0.706,0.589,1.342,1.236,1.89,1.94c0.613,0.789,0.471,1.926-0.319,2.538
		c-0.788,0.614-1.925,0.471-2.538-0.317c-0.411-0.528-0.86-0.992-1.338-1.39c-1.994-1.663-4.675-2.511-7.385-2.544
		c-2.709-0.032-5.423,0.753-7.483,2.355C37.052,70.084,36.575,70.539,36.167,71.028z"/>
	<path fill-rule="evenodd" clip-rule="evenodd" fill="#4876BA" d="M71.018,66.46c-1.96,3.577-6.503,12.521-6.503,17.037
		c0,3.59,2.912,6.503,6.503,6.503c3.591,0,6.503-2.913,6.503-6.503C77.521,78.981,72.978,70.037,71.018,66.46z"/>
</g>
</svg>
