<?xml version="1.0" encoding="utf-8"?>
<!-- Generator: Adobe Illustrator 16.0.0, SVG Export Plug-In . SVG Version: 6.00 Build 0)  -->
<!DOCTYPE svg PUBLIC "-//W3C//DTD SVG 1.1//EN" "http://www.w3.org/Graphics/SVG/1.1/DTD/svg11.dtd">
<svg version="1.1" id="Layer_1" xmlns="http://www.w3.org/2000/svg" xmlns:xlink="http://www.w3.org/1999/xlink" x="0px" y="0px"
	 width="298px" height="90px" viewBox="0 0 298 90" enable-background="new 0 0 298 90" xml:space="preserve">
<path fill-rule="evenodd" clip-rule="evenodd" fill="#FFFFFF" d="M298,45c0,24.853-20.147,45-45,45H45C20.147,90,0,69.853,0,45l0,0
	C0,20.147,20.147,0,45,0h208C277.853,0,298,20.147,298,45L298,45z"/>
<g>
	<path fill="#397DC0" d="M53.046,45.772v6.023H34.125v-6.023H19.546c-0.025,0-0.046,0.021-0.046,0.046v16.829
		c0,1.13,0.919,2.05,2.049,2.05h44.067c1.134,0,2.054-0.92,2.054-2.05V45.818c0-0.025-0.021-0.046-0.046-0.046H53.046z
		 M53.046,45.772"/>
	<path fill="#14659C" d="M54.768,39.753v-6.632c0,0-12.096-2.293-18.858,8.349c0,0-0.353-2.398,0.584-5.678
		c0.293-1.025,0.692-2,1.163-2.924h-9.556l-8.584,12.865c-0.009,0.017,0.008,0.038,0.025,0.038h14.583v6.023h18.921v-6.023h14.579
		c0.021,0,0.038-0.021,0.029-0.038l-7.237-10.845L54.768,39.753z M54.768,39.753"/>
	<path fill="#A2C8EA" d="M54.768,23.406v-6.879l13.713,11.332c0.025,0.026,0.025,0.063,0,0.088L54.768,39.753v-6.632
		c0,0-12.096-2.293-18.858,8.349c0,0-0.353-2.398,0.584-5.678c2.083-7.283,8.857-12.105,16.426-12.378
		C53.529,23.39,54.1,23.39,54.768,23.406L54.768,23.406z M54.768,23.406"/>
</g>
</svg>
