<?xml version="1.0" encoding="utf-8"?>
<!-- Generator: Adobe Illustrator 16.0.0, SVG Export Plug-In . SVG Version: 6.00 Build 0)  -->
<!DOCTYPE svg PUBLIC "-//W3C//DTD SVG 1.1//EN" "http://www.w3.org/Graphics/SVG/1.1/DTD/svg11.dtd">
<svg version="1.1" id="Layer_1" xmlns="http://www.w3.org/2000/svg" xmlns:xlink="http://www.w3.org/1999/xlink" x="0px" y="0px"
	 width="298px" height="90px" viewBox="0 0 298 90" enable-background="new 0 0 298 90" xml:space="preserve">
<path fill-rule="evenodd" clip-rule="evenodd" fill="#FED84A" d="M298,45c0,24.853-20.147,45-45,45H45C20.147,90,0,69.853,0,45l0,0
	C0,20.147,20.147,0,45,0h208C277.853,0,298,20.147,298,45L298,45z"/>
<g>
	<path fill-rule="evenodd" clip-rule="evenodd" fill="#FED84A" d="M45,90c24.785,0,45-20.215,45-45C90,20.215,69.785,0,45,0
		S0,20.215,0,45C0,69.785,20.215,90,45,90z"/>
	<path fill-rule="evenodd" clip-rule="evenodd" fill="#000002" d="M45,80.039c7.121,0,12.929-7.9,12.929-17.585
		c0-9.686-5.808-17.584-12.929-17.584s-12.929,7.899-12.929,17.584C32.071,72.139,37.879,80.039,45,80.039z"/>
	<path fill-rule="evenodd" clip-rule="evenodd" fill="#000002" d="M61.485,13.234c-0.843,0.53-1.958,0.278-2.489-0.565
		s-0.277-1.958,0.565-2.489c2.002-1.267,4.354-1.732,6.603-1.441c2.25,0.292,4.402,1.335,6.011,3.083
		c0.675,0.734,0.627,1.877-0.106,2.552c-0.734,0.675-1.877,0.628-2.552-0.106c-1.018-1.105-2.382-1.766-3.805-1.951
		C64.268,12.13,62.762,12.426,61.485,13.234z"/>
	<path fill-rule="evenodd" clip-rule="evenodd" fill="#000002" d="M64.438,24.894c-3.353,0.531-5.511,4.935-4.821,9.835
		c0.688,4.901,3.965,8.444,7.316,7.913c3.352-0.53,5.511-4.934,4.822-9.835S67.79,24.364,64.438,24.894z"/>
	<path fill-rule="evenodd" clip-rule="evenodd" fill="#000002" d="M25.562,24.894c3.352,0.531,5.511,4.935,4.822,9.835
		c-0.689,4.901-3.965,8.444-7.317,7.913c-3.352-0.53-5.51-4.934-4.821-9.835S22.21,24.364,25.562,24.894z"/>
	<path fill-rule="evenodd" clip-rule="evenodd" fill="#000002" d="M30.438,10.18c0.843,0.53,1.097,1.646,0.566,2.489
		c-0.531,0.843-1.646,1.096-2.489,0.565c-1.276-0.808-2.784-1.104-4.226-0.917c-1.425,0.185-2.788,0.845-3.806,1.951
		c-0.675,0.734-1.818,0.781-2.552,0.106c-0.734-0.675-0.781-1.818-0.106-2.552c1.609-1.747,3.762-2.791,6.011-3.083
		C26.083,8.448,28.436,8.913,30.438,10.18z"/>
</g>
</svg>
